<svg xmlns="http://www.w3.org/2000/svg" id="sthetoscope" width="32" height="32" version="1.1" viewBox="0 0 32 32"><g id="layer1" transform="translate(0 -1020.362)"><g id="g15550" transform="translate(-32)"><path id="path15530" fill="#e8e7e9" fill-opacity="1" stroke="none" stroke-dasharray="none" stroke-dashoffset="0" stroke-linecap="round" stroke-linejoin="round" stroke-miterlimit="4" stroke-opacity="1" stroke-width="1" d="m 64.000051,1036.3622 a 16.000017,16.000017 0 0 1 -16.000017,16 16.000017,16.000017 0 0 1 -16.000017,-16 16.000017,16.000017 0 0 1 16.000017,-16 16.000017,16.000017 0 0 1 16.000017,16 z" opacity="1" paint-order="fill markers stroke"></path><g id="g15548" stroke-width="1.049" transform="matrix(.95345 0 0 .95345 -90.971 3.454)"><path id="path15532" fill="#b1cbdc" fill-opacity="1" stroke="none" stroke-dasharray="none" stroke-dashoffset="0" stroke-linecap="round" stroke-linejoin="round" stroke-miterlimit="4" stroke-opacity="1" stroke-width="1.049" d="m 144.71384,1074.1491 a 1.4001029,1.4001029 0 0 1 -1e-5,1.9801 1.4001029,1.4001029 0 0 1 -1.98004,0 1.4001029,1.4001029 0 0 1 0,-1.9801 1.4001029,1.4001029 0 0 1 1.98005,0 z" opacity="1"></path><path id="path15534" fill="#b1cbdc" fill-opacity="1" stroke="none" stroke-dasharray="none" stroke-dashoffset="0" stroke-linecap="round" stroke-linejoin="round" stroke-miterlimit="4" stroke-opacity="1" stroke-width="1.049" d="m 148.24937,1070.6136 a 1.4001029,1.4001029 0 0 1 -1e-5,1.98 1.4001029,1.4001029 0 0 1 -1.98004,0 1.4001029,1.4001029 0 0 1 0,-1.98 1.4001029,1.4001029 0 0 1 1.98005,0 z" opacity="1"></path><path id="path15536" fill="#fff" fill-opacity="1" stroke="none" stroke-dasharray="none" stroke-dashoffset="0" stroke-linecap="round" stroke-linejoin="round" stroke-miterlimit="4" stroke-opacity="1" stroke-width="1.049" d="m 132.31662,1093.5734 c -0.0325,0.1613 -0.0508,0.3289 -0.0508,0.5 0,1.385 1.115,2.5 2.5,2.5 l 22,0 c 1.385,0 2.5,-1.115 2.5,-2.5 0,-0.1711 -0.0183,-0.3387 -0.0508,-0.5 z" opacity="1" paint-order="fill markers stroke"></path><path id="path15538" fill="#fff" fill-opacity="1" stroke="none" stroke-dasharray="none" stroke-dashoffset="0" stroke-linecap="round" stroke-linejoin="round" stroke-miterlimit="4" stroke-opacity="1" stroke-width="1.049" d="m 136.76586,1079.5734 17.99996,0 c 0.83101,0 1.50002,0.669 1.50002,1.5 l 0,11 c 0,0.831 -0.66901,1.5 -1.50002,1.5 l -17.99996,0 c -0.83101,0 -1.50002,-0.669 -1.50002,-1.5 l 0,-11 c 0,-0.831 0.66901,-1.5 1.50002,-1.5 z" opacity="1" paint-order="fill markers stroke"></path><path id="path15540" fill="#a8afb8" fill-opacity="1" stroke="none" stroke-dasharray="none" stroke-dashoffset="0" stroke-linecap="round" stroke-linejoin="round" stroke-miterlimit="4" stroke-opacity="1" stroke-width="1.049" d="m 137.76586,1081.0734 15.99996,0 c 0.55401,0 1.00002,0.446 1.00002,1 l 0,10.4999 c 0,0.5541 -0.44601,1.0001 -1.00002,1.0001 l -15.99996,0 c -0.55401,0 -1.00002,-0.446 -1.00002,-1.0001 l 0,-10.4999 c 0,-0.554 0.44601,-1 1.00002,-1 z" opacity="1" paint-order="fill markers stroke"></path><path style="line-height:normal;text-indent:0;text-align:start;text-decoration-line:none;text-decoration-style:solid;text-decoration-color:#000;text-transform:none;white-space:normal;isolation:auto;mix-blend-mode:normal;solid-color:#000;solid-opacity:1" id="path15542" fill="#a8afb8" fill-opacity="1" fill-rule="nonzero" stroke="none" stroke-dasharray="none" stroke-dashoffset="0" stroke-linecap="butt" stroke-linejoin="round" stroke-miterlimit="4" stroke-opacity="1" stroke-width="1.049" d="m 142.76584,1094.0734 c 0,0.5454 0.45464,1 1,1 l 4,0 c 0.54536,0 1,-0.4546 1,-1 l -1,0 -4,0 z" baseline-shift="baseline" clip-rule="nonzero" color="#000" color-interpolation="sRGB" color-interpolation-filters="linearRGB" color-rendering="auto" direction="ltr" display="inline" enable-background="accumulate" font-family="sans-serif" font-size="medium" font-stretch="normal" font-style="normal" font-variant="normal" font-weight="400" image-rendering="auto" letter-spacing="normal" opacity="1" overflow="visible" paint-order="fill markers stroke" shape-rendering="auto" text-anchor="start" text-decoration="none" text-rendering="auto" visibility="visible" word-spacing="normal" writing-mode="lr-tb"></path><path id="path15544" fill="#b1cbdc" fill-opacity="1" stroke="none" stroke-dasharray="none" stroke-dashoffset="0" stroke-linecap="round" stroke-linejoin="round" stroke-miterlimit="4" stroke-opacity="1" stroke-width="1.049" d="m 141.76585,1095.0738 a 3.4999914,3.4999914 0 0 1 -3.49999,-3.4999 3.4999914,3.4999914 0 0 1 3.49999,-3.5 3.4999914,3.4999914 0 0 1 3.5,3.5 3.4999914,3.4999914 0 0 1 -3.5,3.4999 z" opacity="1"></path><path id="path15546" fill="#454b54" d="m 147.25977,1069.7079 c -0.48709,-2e-4 -0.97483,0.185 -1.34375,0.5547 -0.73675,0.7379 -0.73748,1.9481 0,2.6855 0.73785,0.7379 1.94966,0.7365 2.6875,0 0.51031,-0.5103 0.65845,-1.2452 0.46289,-1.8945 0.3876,-0.025 0.77108,0.089 1.05664,0.375 l 3.06836,3.0684 c 0.88146,1.3512 0.93476,3.0928 0.17382,4.5781 l -8.74609,0 -1.07226,-1.0703 c -0.28578,-0.2858 -0.40046,-0.6707 -0.375,-1.0586 0.64993,0.1956 1.384,0.047 1.89453,-0.4629 0.73786,-0.7379 0.73785,-1.9478 0,-2.6856 -0.36893,-0.3689 -0.85472,-0.5525 -1.3418,-0.5527 -0.48708,-10e-5 -0.97483,0.1831 -1.34375,0.5527 -0.63597,0.6371 -0.72032,1.6243 -0.25781,2.3575 -0.32015,0.9229 -0.14637,1.9747 0.57617,2.6972 l 0.22266,0.2227 -6.15626,0 c -1.09934,0 -2,0.9007 -2,2 l 0,7 -2,0 c -1.09934,0 -2,0.9007 -2,2 0,1.0994 0.90066,2 2,2 l 2,0 c 0,0.3657 0.10774,0.7041 0.28126,1 l -2.73047,0 c -0.23784,-10e-5 -0.44284,0.1673 -0.49024,0.4004 -0.0386,0.1914 -0.0605,0.3929 -0.0605,0.5996 0,0.7709 0.30111,1.4679 0.78126,2 l -1.91407,0 a 0.50004994,0.50004994 0 0 0 -0.0488,0 0.50059574,0.50059574 0 0 0 0.0488,1 l 30.26563,0 a 0.50004994,0.50004994 0 1 0 0,-1 l -1.91406,0 c 0.48014,-0.5321 0.78124,-1.2291 0.78124,-2 0,-0.2067 -0.022,-0.4082 -0.0605,-0.5996 -0.0474,-0.2331 -0.2524,-0.4005 -0.49024,-0.4004 l -2.73046,0 c 0.17351,-0.2959 0.28124,-0.6343 0.28124,-1 l 0,-2 0.5,0 c 1.09935,0 2,-0.9006 2,-2 0,-0.4972 -0.17196,-0.9474 -0.5039,-1.3652 -0.17486,-0.2202 -0.3998,-0.4619 -0.67578,-0.75 0.18088,-0.4202 0.14377,-0.9296 -0.30274,-1.3575 l -1.01758,-1.0175 0,-1.0879 c 0.27539,-0.4444 0.50236,-0.9163 0.66602,-1.4102 0.20123,-0.6071 0.31396,-1.2428 0.32813,-1.8906 0.0207,-0.5602 -0.30356,-0.9867 -0.73243,-1.1817 -0.19268,-1.0593 -0.68438,-2.0652 -1.49414,-2.875 l -4.56054,-4.5605 c -0.51128,-0.5113 -1.18996,-0.7539 -1.86914,-0.7383 -0.28171,0.01 -0.56155,0.068 -0.83204,0.1621 -0.3077,-0.1933 -0.65923,-0.2948 -1.01171,-0.2949 z m 0,0.9922 c 0.22906,2e-4 0.45886,0.09 0.63671,0.2676 0.3557,0.3557 0.35571,0.9138 0,1.2695 -0.3557,0.3557 -0.91773,0.3571 -1.27343,0 -0.3557,-0.3557 -0.3557,-0.9177 0,-1.2734 l 0,0 c 0.17784,-0.1779 0.40765,-0.2678 0.63672,-0.2676 z m -3.53516,3.5371 c 0.22907,2e-4 0.4569,0.089 0.63477,0.2656 0.35569,0.3557 0.3557,0.9139 0,1.2696 -0.35571,0.3557 -0.91578,0.3571 -1.27149,0 -0.35569,-0.3557 -0.35569,-0.9178 0,-1.2735 l 0,0 c 0.17785,-0.1778 0.40765,-0.2658 0.63672,-0.2656 z m 11.12305,1.9434 c 0.50251,0.5658 0.83581,1.229 0.98437,1.9355 -0.0717,0.048 -0.14582,0.09 -0.21094,0.1563 -0.22781,0.2314 -0.35688,0.5424 -0.35937,0.8671 -5e-5,0 5e-5,0 0,0.01 -0.15953,-0.041 -0.32416,-0.07 -0.4961,-0.07 l -0.30273,0 c 0.37718,-0.9301 0.51136,-1.9286 0.38477,-2.8945 z m -18.08204,3.8945 18,0 c 0.56267,0 1,0.4374 1,1 l 0,8 0,1 0,2 c 0,0.5627 -0.43733,1 -1,1 l -9.29882,0 c 0.0263,-0.065 0.057,-0.1267 0.0801,-0.1934 0.64525,-1.8651 -0.17301,-3.9316 -1.91993,-4.8496 -0.43674,-0.2294 -0.90028,-0.3701 -1.36718,-0.4277 -1.40073,-0.1727 -2.83737,0.4056 -3.71485,1.5976 -0.41721,0.5667 -0.65617,1.2126 -0.73828,1.8731 l -2.04102,0 0,-10 c 0,-0.5626 0.43735,-1 1,-1 z m 20.59961,6.5996 c 0.18304,0.1939 0.5102,0.5265 0.61329,0.6563 0.2547,0.3206 0.2871,0.4104 0.2871,0.7441 0,0.5627 -0.43736,1 -1,1 l -0.5,0 0,-2.3184 c 0.20716,0.024 0.41224,0 0.59961,-0.082 z m -15.75585,1.9004 c 0.52318,-0.027 1.05929,0.084 1.55273,0.3437 1.31574,0.6914 1.92544,2.2321 1.43945,3.6368 -0.15094,0.4364 -0.39285,0.8149 -0.69922,1.125 a 0.50005,0.50005 0 1 0 0.71094,0.7031 c 0.0915,-0.093 0.16154,-0.2067 0.24414,-0.3086 l 9.9082,0 4,0 c 0,1.1167 -0.88335,2 -2,2 l -22,0 c -1.11663,0 -2,-0.8833 -2,-2 l 4,0 1.9004,0 c 0.0888,0.1102 0.16946,0.2261 0.27148,0.3281 a 0.50005,0.50005 0 1 0 0.70703,-0.707 c -1.0511,-1.0511 -1.17626,-2.7033 -0.29492,-3.9004 0.55074,-0.7481 1.38778,-1.1755 2.25977,-1.2207 z m -8.84376,0.5 2,0 0,2 -2,0 c -0.56263,0 -1,-0.4373 -1,-1 0,-0.5626 0.43737,-1 1,-1 z m 9,0.498 a 2,2 0 0 0 -2,2 2,2 0 0 0 2,2 2,2 0 0 0 2,-2 2,2 0 0 0 -2,-2 z m -6,2.502 2.04688,0 c 0.0433,0.3421 0.12735,0.6774 0.25781,1 l -1.30469,0 c -0.56265,0 -1,-0.4373 -1,-1 z m 6.78516,2.4062 a 0.50005,0.50005 0 0 0 -0.0215,0 0.50005,0.50005 0 0 0 -0.01,0 0.50005,0.50005 0 0 0 -0.084,0.014 c -0.38843,0.089 -0.79845,0.1023 -1.21289,0.025 a 0.50005,0.50005 0 1 0 -0.18164,0.9824 c 0.55037,0.1015 1.10062,0.086 1.61914,-0.033 a 0.50005,0.50005 0 0 0 -0.10938,-0.9922 z m 8.16602,3.5938 a 0.50059549,0.50059549 0 0 0 0.0488,1 l 5,0 a 0.50004994,0.50004994 0 1 0 0,-1 l -5,0 a 0.50004994,0.50004994 0 0 0 -0.0488,0 z m 7,0 a 0.50059549,0.50059549 0 0 0 0.0488,1 l 1.49219,0 a 0.50004994,0.50004994 0 1 0 0,-1 l -1.49219,0 a 0.50004994,0.50004994 0 0 0 -0.0488,0 z" style="line-height:normal;text-indent:0;text-align:start;text-decoration-line:none;text-decoration-style:solid;text-decoration-color:#000;text-transform:none;white-space:normal;isolation:auto;mix-blend-mode:normal;solid-color:#000;solid-opacity:1" fill-opacity="1" fill-rule="nonzero" stroke="none" stroke-dasharray="none" stroke-dashoffset="0" stroke-linecap="round" stroke-linejoin="round" stroke-miterlimit="4" stroke-opacity="1" stroke-width="1.049" baseline-shift="baseline" clip-rule="nonzero" color="#000" color-interpolation="sRGB" color-interpolation-filters="linearRGB" color-rendering="auto" direction="ltr" display="inline" enable-background="accumulate" font-family="sans-serif" font-size="medium" font-stretch="normal" font-style="normal" font-variant="normal" font-weight="400" image-rendering="auto" letter-spacing="normal" opacity="1" overflow="visible" shape-rendering="auto" text-anchor="start" text-decoration="none" text-rendering="auto" visibility="visible" word-spacing="normal" writing-mode="lr-tb"></path></g></g></g></svg>